<svg width="10" height="10" viewBox="0 0 10 10" fill="none" xmlns="http://www.w3.org/2000/svg">
<path d="M0.764272 9.96221C0.764272 9.96221 0.00012207 9.96221 0.00012207 9.19806C0.00012207 8.43391 0.764272 6.14146 4.58502 6.14146C8.40577 6.14146 9.16992 8.43391 9.16992 9.19806C9.16992 9.96221 8.40577 9.96221 8.40577 9.96221H0.764272ZM4.58502 5.37731C5.19302 5.37731 5.77611 5.13578 6.20603 4.70586C6.63595 4.27594 6.87747 3.69285 6.87747 3.08485C6.87747 2.47686 6.63595 1.89377 6.20603 1.46385C5.77611 1.03393 5.19302 0.792404 4.58502 0.792404C3.97703 0.792404 3.39393 1.03393 2.96402 1.46385C2.5341 1.89377 2.29257 2.47686 2.29257 3.08485C2.29257 3.69285 2.5341 4.27594 2.96402 4.70586C3.39393 5.13578 3.97703 5.37731 4.58502 5.37731V5.37731Z" fill="#303030"/>
</svg>
