<svg width="9" height="11" viewBox="0 0 9 11" fill="none" xmlns="http://www.w3.org/2000/svg">
<path d="M3.38029 0.420132L7.96519 1.439C8.02291 1.45054 8.07485 1.48171 8.11219 1.52722C8.14952 1.57272 8.16994 1.62976 8.16998 1.68862V9.33013C8.16994 9.38899 8.14952 9.44602 8.11219 9.49153C8.07485 9.53704 8.02291 9.56821 7.96519 9.57975L3.38029 10.5986C3.34335 10.606 3.30523 10.6051 3.26868 10.596C3.23213 10.5869 3.19806 10.5697 3.16892 10.5459C3.13978 10.522 3.1163 10.4919 3.10017 10.4579C3.08404 10.4239 3.07567 10.3867 3.07564 10.349V0.669755C3.07567 0.632084 3.08404 0.594888 3.10017 0.560845C3.1163 0.526803 3.13978 0.496762 3.16892 0.472886C3.19806 0.449011 3.23213 0.431895 3.26868 0.422773C3.30523 0.413651 3.34335 0.412749 3.38029 0.420132ZM2.56621 1.4339V9.58484H0.401118C0.30879 9.58484 0.219586 9.5514 0.150003 9.49072C0.08042 9.43003 0.0351657 9.3462 0.022609 9.25473L0.019043 9.20277V1.81598C0.0190469 1.72365 0.0524836 1.63445 0.11317 1.56486C0.173856 1.49528 0.257685 1.45003 0.349156 1.43747L0.401118 1.4339H2.56621ZM4.60394 4.99994C4.46883 4.99994 4.33926 5.05361 4.24372 5.14915C4.14818 5.24469 4.09451 5.37426 4.09451 5.50937C4.09451 5.64448 4.14818 5.77406 4.24372 5.8696C4.33926 5.96513 4.46883 6.01881 4.60394 6.01881C4.73905 6.01881 4.86863 5.96513 4.96417 5.8696C5.05971 5.77406 5.11338 5.64448 5.11338 5.50937C5.11338 5.37426 5.05971 5.24469 4.96417 5.14915C4.86863 5.05361 4.73905 4.99994 4.60394 4.99994Z" fill="#303030"/>
</svg>
