<svg width="10" height="10" viewBox="0 0 10 10" fill="none" xmlns="http://www.w3.org/2000/svg">
<path d="M-5.43504e-05 4.27678V8.69261C3.72563e-05 8.8311 0.0375644 8.96698 0.108556 9.08589C0.179547 9.20479 0.281362 9.30229 0.403226 9.36807C0.513639 9.42784 0.637507 9.45835 0.763045 9.45672H3.05822C3.15955 9.45672 3.25673 9.41646 3.32839 9.34481C3.40004 9.27316 3.44029 9.17597 3.44029 9.07464V6.78185C3.44029 6.68052 3.48055 6.58334 3.5522 6.51169C3.62385 6.44003 3.72104 6.39978 3.82237 6.39978H5.35067C5.452 6.39978 5.54918 6.44003 5.62084 6.51169C5.69249 6.58334 5.73274 6.68052 5.73274 6.78185V9.07464C5.73274 9.17597 5.773 9.27316 5.84465 9.34481C5.9163 9.41646 6.01349 9.45672 6.11482 9.45672H8.4055C8.51383 9.45699 8.62097 9.43411 8.71974 9.38961C8.81851 9.34511 8.90663 9.28001 8.97819 9.19867C9.1038 9.05339 9.17194 8.86718 9.16975 8.67513V4.27673C9.16967 4.17027 9.14738 4.06499 9.10431 3.96762C9.06125 3.87026 8.99835 3.78294 8.91963 3.71126L5.09922 0.237573C4.95888 0.109031 4.77548 0.0377222 4.58518 0.0377045C4.39487 0.0376868 4.21146 0.108961 4.0711 0.237478L0.250013 3.71131C0.171319 3.783 0.108437 3.87032 0.0653802 3.96769C0.0223233 4.06505 3.75024e-05 4.17032 -5.43504e-05 4.27678Z" fill="#303030"/>
</svg>
