<svg width="204" height="31" viewBox="0 0 204 31" fill="none" xmlns="http://www.w3.org/2000/svg">
<path d="M16 24.9142L25.888 31L23.264 19.53L32 11.8126L20.496 10.8011L16 0L11.504 10.8011L0 11.8126L8.72 19.53L6.112 31L16 24.9142Z" fill="#FF585D"/>
<path d="M59 24.9142L68.888 31L66.264 19.53L75 11.8126L63.496 10.8011L59 0L54.504 10.8011L43 11.8126L51.72 19.53L49.112 31L59 24.9142Z" fill="#FF585D"/>
<path d="M102 24.9142L111.888 31L109.264 19.53L118 11.8126L106.496 10.8011L102 0L97.504 10.8011L86 11.8126L94.72 19.53L92.112 31L102 24.9142Z" fill="#FF585D"/>
<path d="M145 24.9142L154.888 31L152.264 19.53L161 11.8126L149.496 10.8011L145 0L140.504 10.8011L129 11.8126L137.72 19.53L135.112 31L145 24.9142Z" fill="#FF585D"/>
<path d="M188 24.9142L197.888 31L195.264 19.53L204 11.8126L192.496 10.8011L188 0L183.504 10.8011L172 11.8126L180.72 19.53L178.112 31L188 24.9142Z" fill="#FF585D"/>
</svg>
