<svg width="21" height="22" viewBox="0 0 21 22" fill="none" xmlns="http://www.w3.org/2000/svg">
<path d="M15.0086 13.9933H14.06L13.7238 13.6691C14.9005 12.3003 15.6089 10.5233 15.6089 8.59017C15.6089 4.2797 12.1149 0.785706 7.80446 0.785706C3.494 0.785706 0 4.2797 0 8.59017C0 12.9006 3.494 16.3946 7.80446 16.3946C9.73756 16.3946 11.5146 15.6862 12.8834 14.5095L13.2075 14.8457V15.7943L19.211 21.7857L21 19.9967L15.0086 13.9933ZM7.80446 13.9933C4.81475 13.9933 2.40137 11.5799 2.40137 8.59017C2.40137 5.60046 4.81475 3.18708 7.80446 3.18708C10.7942 3.18708 13.2075 5.60046 13.2075 8.59017C13.2075 11.5799 10.7942 13.9933 7.80446 13.9933Z" fill="white"/>
</svg>
